<svg width="673" height="725" viewBox="0 0 673 725" fill="none" xmlns="http://www.w3.org/2000/svg">
<g filter="url(#filter0_i_1404_595)">
<ellipse cx="111.086" cy="346.909" rx="20.0603" ry="20.867" fill="#FFF9FC"/>
</g>
<path d="M107.743 324.303C112.57 314.262 135.978 312.274 145.181 313.689C145.822 313.787 146.338 314.196 146.583 314.796C154.797 334.934 162.359 395.459 141.177 381.688C128.516 373.456 110.859 375.096 108.069 370.375C107.771 369.871 107.964 369.257 108.289 368.769C115.492 357.963 102.844 334.496 107.743 324.303Z" fill="#C06390"/>
<path fill-rule="evenodd" clip-rule="evenodd" d="M353.481 724.254C466.118 724.254 532.352 583.18 532.352 447.767C532.352 421.433 534.628 390.038 537.078 356.249C547.224 216.285 560.349 35.2328 427.036 2.6037C426.452 2.49786 425.869 2.39533 425.287 2.29608C425.666 2.36199 426.045 2.42935 426.425 2.49816C525.746 26.8075 543.225 131.761 541.771 242.469C541.406 270.291 476.575 317.242 324.451 308.548C228.265 303.05 173.725 247.585 170.65 220.876C140.835 297.919 124.46 383.341 124.46 456.461C124.46 591.875 240.845 724.254 353.481 724.254ZM398.774 0.000227726C339.604 0.0758898 286.937 35.2159 244.006 88.2083C286.473 34.7681 338.838 -0.10281 398.774 0.000227726Z" fill="#E8A1BF"/>
<path d="M426.425 2.49806C314.226 -17.8461 222.292 88.9991 170.656 216.385C173.856 245.187 222.335 301.96 324.308 307.788C476.432 316.483 538.284 264.315 543.299 241.71C567.233 133.827 525.746 26.8074 426.425 2.49806Z" fill="#CAE2FF"/>
<path d="M426.425 2.49806C314.226 -17.8461 222.292 88.9991 170.656 216.385C173.856 245.187 222.335 301.96 324.308 307.788C476.432 316.483 538.284 264.315 543.299 241.71C567.233 133.827 525.746 26.8074 426.425 2.49806Z" stroke="black"/>
<mask id="mask0_1404_595" style="mask-type:alpha" maskUnits="userSpaceOnUse" x="124" y="0" width="420" height="725">
<path d="M532.352 447.767C532.352 583.18 466.118 724.254 353.481 724.254C240.845 724.254 124.46 591.875 124.46 456.461C124.46 258.225 244.822 -30.4358 427.036 2.6037C560.349 35.2328 547.224 216.285 537.078 356.249C534.628 390.038 532.352 421.433 532.352 447.767Z" fill="#E9B0E3"/>
<path d="M532.352 447.767C532.352 583.18 466.118 724.254 353.481 724.254C240.845 724.254 124.46 591.875 124.46 456.461C124.46 258.225 244.822 -30.4358 427.036 2.6037C560.349 35.2328 547.224 216.285 537.078 356.249C534.628 390.038 532.352 421.433 532.352 447.767Z" stroke="black"/>
</mask>
<g mask="url(#mask0_1404_595)">
<g style="mix-blend-mode:multiply">
<path d="M415.19 306.981C505.3 312.991 542.913 272.271 550.455 251.159C557.338 275.678 553.906 417.719 522.631 548.357C493.081 671.789 451.534 708.119 401.359 718.885C398.519 720.362 395.558 720.937 392.484 720.521C395.471 720.054 398.43 719.513 401.359 718.885C446.904 695.189 461.516 439.198 415.19 306.981Z" fill="#F8E9E9"/>
</g>
<path d="M544.971 239.964C544.971 289.931 418.35 315.306 319.11 308.414C230.136 299.798 162.689 244.929 171.244 217.361C179.8 189.793 298.578 187.803 329.376 187.803C360.174 187.803 544.971 189.997 544.971 239.964Z" fill="#A5BBDC"/>
<path d="M539.022 295.746C537.398 345.24 416.021 383.958 319.459 377.111C232.756 368.54 143.761 310.749 151.084 283.004C151.16 282.715 151.182 282.409 151.137 282.114C145.779 246.845 147.136 230.298 170.512 219.104C177.756 245.187 221.552 303.211 332.666 307.788C473.165 313.577 532.662 267.764 543.299 245.187C555.558 262.459 553.99 282.857 539.835 294.128C539.341 294.521 539.043 295.116 539.022 295.746Z" fill="#FFF7FB"/>
</g>
<path d="M204.701 402.555C204.701 410.238 198.714 416.466 191.328 416.466C183.942 416.466 177.954 410.238 177.954 402.555C177.954 394.872 183.942 388.643 191.328 388.643C198.714 388.643 204.701 394.872 204.701 402.555Z" fill="#C06390"/>
<path d="M204.701 402.555C204.701 410.238 198.714 416.466 191.328 416.466C183.942 416.466 177.954 410.238 177.954 402.555C177.954 394.872 183.942 388.643 191.328 388.643C198.714 388.643 204.701 394.872 204.701 402.555Z" stroke="black"/>
<path d="M187.984 458.2C187.984 465.883 181.997 472.111 174.611 472.111C167.225 472.111 161.237 465.883 161.237 458.2C161.237 450.517 167.225 444.289 174.611 444.289C181.997 444.289 187.984 450.517 187.984 458.2Z" fill="#C06390"/>
<path d="M187.984 458.2C187.984 465.883 181.997 472.111 174.611 472.111C167.225 472.111 161.237 465.883 161.237 458.2C161.237 450.517 167.225 444.289 174.611 444.289C181.997 444.289 187.984 450.517 187.984 458.2Z" stroke="black"/>
<path d="M184.641 517.323C184.641 525.006 178.653 531.235 171.267 531.235C163.881 531.235 157.894 525.006 157.894 517.323C157.894 509.64 163.881 503.412 171.267 503.412C178.653 503.412 184.641 509.64 184.641 517.323Z" fill="#C06390"/>
<path d="M184.641 517.323C184.641 525.006 178.653 531.235 171.267 531.235C163.881 531.235 157.894 525.006 157.894 517.323C157.894 509.64 163.881 503.412 171.267 503.412C178.653 503.412 184.641 509.64 184.641 517.323Z" stroke="black"/>
<g filter="url(#filter1_i_1404_595)">
<path d="M260.887 425.015C261.257 424.102 262.245 423.593 263.207 423.808C305.795 433.323 352.604 417.07 418.358 428.291C419.449 428.477 420.186 429.539 419.99 430.628C411.235 479.43 409.238 507.801 408.673 556.735C408.659 557.952 407.555 558.888 406.349 558.722C350.344 550.989 311.231 577.473 236.429 554.353C235.497 554.065 234.893 553.119 235.027 552.152C242.43 498.823 244.104 466.453 260.887 425.015Z" fill="#C06390"/>
</g>
<g filter="url(#filter2_i_1404_595)">
<ellipse cx="549.07" cy="416.466" rx="20.0603" ry="20.867" fill="#FFF9FC"/>
</g>
<path d="M544.054 372.993C521.319 359.082 486.775 373.608 487.217 386.904C487.658 400.2 497.354 428.996 510.62 432.116C523.886 435.236 533.826 438.517 539.039 433.855C551.39 422.809 557.521 409.39 563.431 406.338C563.861 406.116 564.247 405.803 564.437 405.358C566.855 399.691 565.87 386.342 544.054 372.993Z" fill="#C06390"/>
<g filter="url(#filter3_i_1404_595)">
<path d="M564.786 482.991C556.29 463.56 572.895 440.556 582.776 430.923C583.142 430.566 583.638 430.377 584.15 430.381C653.244 430.916 693.022 500.09 662.213 520.129C640.419 534.305 611.826 508.702 598.626 493.233C597.312 491.693 594.645 492.754 594.806 494.772C595.995 509.658 596.407 534.088 578.704 530.961C560.146 527.685 575.611 507.75 564.786 482.991Z" fill="#FFF9FC"/>
<path d="M564.786 482.991C556.29 463.56 572.895 440.556 582.776 430.923C583.142 430.566 583.638 430.377 584.15 430.381C653.244 430.916 693.022 500.09 662.213 520.129C640.419 534.305 611.826 508.702 598.626 493.233C597.312 491.693 594.645 492.754 594.806 494.772C595.995 509.658 596.407 534.088 578.704 530.961C560.146 527.685 575.611 507.75 564.786 482.991Z" stroke="black"/>
</g>
<g filter="url(#filter4_i_1404_595)">
<path d="M62.6074 395.599C72.6375 392.121 89.3544 366.037 82.6677 339.954C75.981 313.87 -15.962 367.776 2.42655 381.688C20.8151 395.599 51.8679 373.099 49.2338 379.949C45.8905 388.643 44.5253 401.869 62.6074 395.599Z" fill="#FFF9FC"/>
<path d="M62.6074 395.599C72.6375 392.121 89.3544 366.037 82.6677 339.954C75.981 313.87 -15.962 367.776 2.42655 381.688C20.8151 395.599 51.8679 373.099 49.2338 379.949C45.8905 388.643 44.5253 401.869 62.6074 395.599Z" stroke="black"/>
</g>
<g filter="url(#filter5_i_1404_595)">
<path d="M490.56 209.535C490.56 262.356 418.732 277.353 365.183 277.353C311.635 277.353 229.776 272.789 229.776 219.968C229.776 167.148 291.629 110.417 371.87 105.2C452.111 99.9831 490.56 156.714 490.56 209.535Z" fill="#F9F9FF"/>
</g>
<path d="M316.047 173.177C312.89 181.597 306.145 186.725 300.98 184.63C295.816 182.536 294.187 174.012 297.343 165.591C300.5 157.171 307.245 152.043 312.41 154.138C317.574 156.232 319.203 164.756 316.047 173.177Z" fill="#23F483"/>
<path d="M316.047 173.177C312.89 181.597 306.145 186.725 300.98 184.63C295.816 182.536 294.187 174.012 297.343 165.591C300.5 157.171 307.245 152.043 312.41 154.138C317.574 156.232 319.203 164.756 316.047 173.177Z" stroke="black"/>
<path d="M389.174 194.174C383.573 203.637 373.505 207.769 366.686 203.402C359.867 199.035 358.879 187.824 364.48 178.36C370.081 168.897 380.149 164.765 386.968 169.132C393.787 173.499 394.774 184.711 389.174 194.174Z" fill="#23F483"/>
<path d="M389.174 194.174C383.573 203.637 373.505 207.769 366.686 203.402C359.867 199.035 358.879 187.824 364.48 178.36C370.081 168.897 380.149 164.765 386.968 169.132C393.787 173.499 394.774 184.711 389.174 194.174Z" stroke="black"/>
<path d="M314.392 247.617C303.498 245.453 303.272 240.22 304.5 233.528C305.728 226.837 307.946 221.22 318.84 223.384C329.733 225.547 333.068 233.536 331.84 240.227C330.611 246.919 325.285 249.78 314.392 247.617Z" fill="#A9ABD2"/>
<path d="M314.392 247.617C303.498 245.453 303.272 240.22 304.5 233.528C305.728 226.837 307.946 221.22 318.84 223.384C329.733 225.547 333.068 233.536 331.84 240.227C330.611 246.919 325.285 249.78 314.392 247.617Z" stroke="black"/>
<path d="M480.796 48.0549C494.326 64.9911 511.113 99.2013 497.871 106.123C484.629 113.045 468.004 84.2035 454.474 67.2674C440.945 50.3312 419.081 36.844 432.323 29.9222C445.565 23.0004 467.267 31.1187 480.796 48.0549Z" fill="white"/>
<path d="M507.59 120.602C512.628 120.854 521.181 127.415 520.35 138.294C519.519 149.174 511.927 145.063 506.889 144.811C501.851 144.559 498.504 140.537 499.335 129.657C500.166 118.777 502.552 120.35 507.59 120.602Z" fill="white"/>
<defs>
<filter id="filter0_i_1404_595" x="91.0259" y="326.042" width="40.1206" height="41.734" filterUnits="userSpaceOnUse" color-interpolation-filters="sRGB">
<feFlood flood-opacity="0" result="BackgroundImageFix"/>
<feBlend mode="normal" in="SourceGraphic" in2="BackgroundImageFix" result="shape"/>
<feColorMatrix in="SourceAlpha" type="matrix" values="0 0 0 0 0 0 0 0 0 0 0 0 0 0 0 0 0 0 127 0" result="hardAlpha"/>
<feOffset dy="-9"/>
<feComposite in2="hardAlpha" operator="arithmetic" k2="-1" k3="1"/>
<feColorMatrix type="matrix" values="0 0 0 0 0.654902 0 0 0 0 0.439216 0 0 0 0 0.690196 0 0 0 0.15 0"/>
<feBlend mode="normal" in2="shape" result="effect1_innerShadow_1404_595"/>
</filter>
<filter id="filter1_i_1404_595" x="235.008" y="423.759" width="185.014" height="140.297" filterUnits="userSpaceOnUse" color-interpolation-filters="sRGB">
<feFlood flood-opacity="0" result="BackgroundImageFix"/>
<feBlend mode="normal" in="SourceGraphic" in2="BackgroundImageFix" result="shape"/>
<feColorMatrix in="SourceAlpha" type="matrix" values="0 0 0 0 0 0 0 0 0 0 0 0 0 0 0 0 0 0 127 0" result="hardAlpha"/>
<feOffset dx="3" dy="4"/>
<feComposite in2="hardAlpha" operator="arithmetic" k2="-1" k3="1"/>
<feColorMatrix type="matrix" values="0 0 0 0 0 0 0 0 0 0 0 0 0 0 0 0 0 0 0.15 0"/>
<feBlend mode="normal" in2="shape" result="effect1_innerShadow_1404_595"/>
</filter>
<filter id="filter2_i_1404_595" x="529.009" y="395.599" width="40.1206" height="41.734" filterUnits="userSpaceOnUse" color-interpolation-filters="sRGB">
<feFlood flood-opacity="0" result="BackgroundImageFix"/>
<feBlend mode="normal" in="SourceGraphic" in2="BackgroundImageFix" result="shape"/>
<feColorMatrix in="SourceAlpha" type="matrix" values="0 0 0 0 0 0 0 0 0 0 0 0 0 0 0 0 0 0 127 0" result="hardAlpha"/>
<feOffset dy="-9"/>
<feComposite in2="hardAlpha" operator="arithmetic" k2="-1" k3="1"/>
<feColorMatrix type="matrix" values="0 0 0 0 0.654902 0 0 0 0 0.439216 0 0 0 0 0.690196 0 0 0 0.15 0"/>
<feBlend mode="normal" in2="shape" result="effect1_innerShadow_1404_595"/>
</filter>
<filter id="filter3_i_1404_595" x="562.443" y="430.38" width="110.332" height="100.854" filterUnits="userSpaceOnUse" color-interpolation-filters="sRGB">
<feFlood flood-opacity="0" result="BackgroundImageFix"/>
<feBlend mode="normal" in="SourceGraphic" in2="BackgroundImageFix" result="shape"/>
<feColorMatrix in="SourceAlpha" type="matrix" values="0 0 0 0 0 0 0 0 0 0 0 0 0 0 0 0 0 0 127 0" result="hardAlpha"/>
<feOffset dy="-9"/>
<feComposite in2="hardAlpha" operator="arithmetic" k2="-1" k3="1"/>
<feColorMatrix type="matrix" values="0 0 0 0 0.654902 0 0 0 0 0.439216 0 0 0 0 0.690196 0 0 0 0.15 0"/>
<feBlend mode="normal" in2="shape" result="effect1_innerShadow_1404_595"/>
</filter>
<filter id="filter4_i_1404_595" x="0" y="332.926" width="84.2031" height="64.3041" filterUnits="userSpaceOnUse" color-interpolation-filters="sRGB">
<feFlood flood-opacity="0" result="BackgroundImageFix"/>
<feBlend mode="normal" in="SourceGraphic" in2="BackgroundImageFix" result="shape"/>
<feColorMatrix in="SourceAlpha" type="matrix" values="0 0 0 0 0 0 0 0 0 0 0 0 0 0 0 0 0 0 127 0" result="hardAlpha"/>
<feOffset dy="-9"/>
<feComposite in2="hardAlpha" operator="arithmetic" k2="-1" k3="1"/>
<feColorMatrix type="matrix" values="0 0 0 0 0.654902 0 0 0 0 0.439216 0 0 0 0 0.690196 0 0 0 0.15 0"/>
<feBlend mode="normal" in2="shape" result="effect1_innerShadow_1404_595"/>
</filter>
<filter id="filter5_i_1404_595" x="229.776" y="104.865" width="260.784" height="172.487" filterUnits="userSpaceOnUse" color-interpolation-filters="sRGB">
<feFlood flood-opacity="0" result="BackgroundImageFix"/>
<feBlend mode="normal" in="SourceGraphic" in2="BackgroundImageFix" result="shape"/>
<feColorMatrix in="SourceAlpha" type="matrix" values="0 0 0 0 0 0 0 0 0 0 0 0 0 0 0 0 0 0 127 0" result="hardAlpha"/>
<feOffset dy="-9"/>
<feComposite in2="hardAlpha" operator="arithmetic" k2="-1" k3="1"/>
<feColorMatrix type="matrix" values="0 0 0 0 0.662745 0 0 0 0 0.670588 0 0 0 0 0.823529 0 0 0 0.15 0"/>
<feBlend mode="normal" in2="shape" result="effect1_innerShadow_1404_595"/>
</filter>
</defs>
</svg>
