<svg width="584" height="795" viewBox="0 0 584 795" fill="none" xmlns="http://www.w3.org/2000/svg">
<path d="M226.977 794.566C-25.946 760.068 -11.3893 419.639 12.2653 383.238C35.92 346.838 108.704 345.018 197.864 348.658C287.023 352.298 310.678 372.318 328.874 383.238C347.07 394.158 331.907 432.986 323.415 450.58C263.369 605.282 267.008 800.026 226.977 794.566Z" fill="#707699"/>
<path d="M337.128 392.703C336.338 416.665 263.755 433.718 175.008 430.792C86.2615 427.867 14.9584 406.071 15.7483 382.109C16.5382 358.148 89.1218 341.095 177.868 344.02C266.615 346.946 337.918 368.742 337.128 392.703Z" fill="#5E5C75"/>
<path d="M216.847 344.659C216.095 360.717 200.028 373.011 180.959 372.118C161.89 371.226 147.041 357.484 147.793 341.426C148.545 325.368 164.612 313.075 183.681 313.967C202.75 314.86 217.599 328.601 216.847 344.659Z" fill="#5E5C75"/>
<path d="M131.535 336.949C131.944 332.364 136.463 329.316 140.898 330.548C172.273 339.259 193.635 341.072 226.868 338.151C231.431 337.75 235.3 341.542 234.893 346.104L233.02 367.087C232.771 369.878 230.948 372.263 228.251 373.022C220.348 375.249 202.221 379.283 178.135 377.944C153.619 376.582 138.417 368.564 132.324 364.62C130.34 363.335 129.385 361.031 129.595 358.676L131.535 336.949Z" fill="#707699"/>
<path fill-rule="evenodd" clip-rule="evenodd" d="M122.1 15.6023C113.204 40.0871 97.4556 54.6305 68.7969 72.8056C67.1826 73.8293 66.7539 75.4641 67.1451 76.8838C67.5259 78.2656 68.6231 79.2951 70.4259 79.2455C106.684 78.2488 138.775 72.825 174.127 63.4657C185.144 60.549 193.083 74.3388 184.115 82.0851C169.724 94.5149 155.673 107.747 143.729 125.21L137.737 121.117C150.217 102.872 164.834 89.1516 179.368 76.5976C182.167 74.18 180.004 69.4133 175.986 70.4771C140.209 79.9491 107.552 85.4809 70.6255 86.496C65.1384 86.6469 61.3201 83.0652 60.1474 78.8095C58.985 74.5917 60.3645 69.5627 64.9077 66.6815C93.0808 48.8144 107.199 35.362 115.278 13.1268L122.1 15.6023Z" fill="#5E5C75"/>
<path fill-rule="evenodd" clip-rule="evenodd" d="M481.492 75.3435C472.862 74.2448 465.216 73.657 459.783 74.1509C458.36 74.2803 456.982 74.5357 455.808 75.0479C454.625 75.5639 453.203 76.5519 452.612 78.353C452.038 80.1027 452.562 81.6832 453.078 82.6889C453.607 83.7191 454.379 84.6559 455.156 85.4663C458.107 88.5427 463.712 92.354 469.137 96.0424L469.437 96.2464C475.202 100.167 480.975 104.098 484.774 107.576C486.712 109.35 487.787 110.701 488.204 111.595C488.234 111.661 488.258 111.718 488.277 111.767C487.468 112.511 485.997 113.521 483.748 114.748C481.375 116.042 478.359 117.459 474.813 118.958C467.726 121.953 458.709 125.195 448.87 128.356C429.181 134.683 406.463 140.607 389.775 143.558L391.042 150.724C408.141 147.7 431.19 141.681 451.096 135.284C461.055 132.084 470.292 128.769 477.646 125.661C481.321 124.108 484.574 122.586 487.232 121.137C489.825 119.722 492.096 118.247 493.612 116.731C494.726 115.618 495.442 114.215 495.594 112.613C495.738 111.089 495.342 109.687 494.799 108.521C493.752 106.275 491.786 104.129 489.687 102.208C485.475 98.3516 479.313 94.1616 473.769 90.3926L473.529 90.2289C468.365 86.7177 463.921 83.6724 461.34 81.3296C465.903 81.0459 472.517 81.5364 480.573 82.5621C489.097 83.6474 498.954 85.2918 509.209 87.0784C512.056 87.5743 514.935 88.0817 517.825 88.5909C535.633 91.7289 553.839 94.9372 567.169 95.9559L567.724 88.7002C554.784 87.7114 537.005 84.5797 519.144 81.4339C516.244 80.9231 513.342 80.412 510.458 79.9096C500.198 78.1221 490.197 76.4518 481.492 75.3435ZM459.54 79.3413C459.54 79.3414 459.542 79.3454 459.546 79.3535C459.542 79.3454 459.54 79.3412 459.54 79.3413Z" fill="#5E5C75"/>
<path d="M442.719 194.41C412.649 159.64 389.129 138.103 354.484 122.777C352.226 121.778 349.615 122.054 347.58 123.456L266.431 179.364C264.749 180.522 263.633 182.337 263.354 184.362L247.64 298.687C246.976 303.522 251.168 307.624 255.981 306.878C295.363 300.778 324.149 297.823 364.627 300.794C367.306 300.991 369.887 299.713 371.336 297.446C393.515 262.766 407.939 241.476 442.519 204.13C445.036 201.412 445.142 197.211 442.719 194.41Z" fill="#5E5C75"/>
<path d="M349.937 120.85C270.561 103.674 218.605 105.71 127.684 115.631C126.294 115.783 124.941 116.345 123.859 117.231C37.954 187.544 -3.6045 261.803 5.43524 281.723C14.3996 301.476 143.246 307.2 248.221 308.984C251.084 309.033 253.697 307.373 254.921 304.78C286.27 238.375 310.272 198.301 354.387 131.974C357.214 127.724 354.921 121.928 349.937 120.85Z" fill="#707699"/>
<path d="M123.663 192.515C115.464 207.499 105.245 217.69 100.838 215.279C96.4307 212.867 99.5047 198.766 107.704 183.782C115.903 168.798 126.122 158.606 130.529 161.018C134.936 163.429 131.862 177.531 123.663 192.515Z" fill="#79FFF7"/>
<path d="M222.209 197.976C216.196 213.963 207.511 225.49 202.809 223.721C198.106 221.953 199.169 207.559 205.181 191.572C211.193 175.585 219.879 164.058 224.581 165.827C229.283 167.595 228.221 181.989 222.209 197.976Z" fill="#79FFF7"/>
<path d="M129.429 14.1366C129.429 20.271 124.456 25.2439 118.322 25.2439C112.188 25.2439 107.215 20.271 107.215 14.1366C107.215 8.00221 112.188 3.0293 118.322 3.0293C124.456 3.0293 129.429 8.00221 129.429 14.1366Z" fill="#81D1FF"/>
<path fill-rule="evenodd" clip-rule="evenodd" d="M117.817 7.06829C113.774 7.06829 110.496 10.2329 110.496 14.1366C110.496 18.0403 113.774 21.2049 117.817 21.2049C121.86 21.2049 125.138 18.0403 125.138 14.1366C125.138 10.2329 121.86 7.06829 117.817 7.06829ZM103.176 14.1366C103.176 6.32917 109.731 0 117.817 0C125.903 0 132.458 6.32917 132.458 14.1366C132.458 21.944 125.903 28.2732 117.817 28.2732C109.731 28.2732 103.176 21.944 103.176 14.1366Z" fill="#5E5C75"/>
<path d="M579.781 90.3732C579.781 96.2288 575.034 100.976 569.178 100.976C563.323 100.976 558.576 96.2288 558.576 90.3732C558.576 84.5176 563.323 79.7708 569.178 79.7708C575.034 79.7708 579.781 84.5176 579.781 90.3732Z" fill="#81D1FF"/>
<path fill-rule="evenodd" clip-rule="evenodd" d="M569.178 83.0524C565.135 83.0524 561.857 86.33 561.857 90.3732C561.857 94.4163 565.135 97.6939 569.178 97.6939C573.221 97.6939 576.499 94.4163 576.499 90.3732C576.499 86.33 573.221 83.0524 569.178 83.0524ZM554.537 90.3732C554.537 82.2869 561.092 75.7317 569.178 75.7317C577.264 75.7317 583.82 82.2869 583.82 90.3732C583.82 98.4594 577.264 105.015 569.178 105.015C561.092 105.015 554.537 98.4594 554.537 90.3732Z" fill="#5E5C75"/>
</svg>
