<svg width="380" height="833" viewBox="0 0 380 833" fill="none" xmlns="http://www.w3.org/2000/svg">
<path d="M111.812 203.227L320.687 51.735C321.595 51.0769 322.732 52.1811 322.101 53.1075L159.414 291.945C159.162 292.316 158.693 292.473 158.268 292.33L58.279 258.613C57.8403 258.465 57.5605 258.035 57.6027 257.574L74.6963 70.6832C74.7987 69.564 76.3844 69.4387 76.6614 70.5279L110.255 202.664C110.429 203.349 111.24 203.642 111.812 203.227Z" fill="#E7596A"/>
<path d="M11.7975 600.928C42.5478 535.5 56.6556 497.267 75.6009 431.062C75.8627 430.147 77.1406 430.058 77.4973 430.941L98.567 483.06C98.7203 483.44 98.6272 483.874 98.3318 484.157L70.6027 510.731C70.5395 510.792 70.4845 510.86 70.4391 510.935L43.5182 555.413C43.4237 555.569 43.3737 555.748 43.3737 555.931V571.93C43.3737 572.086 43.3346 572.246 43.2637 572.385C33.3021 592.006 25.3334 595.076 13.2451 602.257C12.3879 602.767 11.3733 601.831 11.7975 600.928Z" fill="#F9E0D9"/>
<path d="M323.43 552.331C285.809 531.096 219.072 436.843 188.94 390.026C188.669 389.604 188.149 389.464 187.698 389.685C174.99 395.903 153.536 412.62 163.706 432.96C174.031 453.611 244.342 502.426 278.762 524.62C279.107 524.843 279.264 525.239 279.202 525.645C277.737 535.279 284.658 553.018 322.875 554.388C323.958 554.426 324.374 552.864 323.43 552.331Z" fill="#F9E0D9"/>
<path d="M116.103 806.242C98.1142 776.147 89.5744 758.324 76.8728 726.696C76.6348 726.103 77.0024 725.433 77.6323 725.328L230.82 699.797C231.476 699.688 232.053 700.249 231.976 700.91C227.374 740.499 223.388 762.995 211.047 801.74C210.952 802.036 210.999 802.364 211.175 802.619L230.181 830.072C230.75 830.894 229.894 831.95 228.972 831.563L196.172 817.809C195.801 817.653 195.559 817.289 195.559 816.886V797.846C195.559 797.619 195.486 797.405 195.345 797.228C174.532 771.023 144.575 719.212 148.37 737.33C152.416 756.651 135.918 791.71 129.57 806.754C129.518 806.877 129.494 807.003 129.494 807.136V824.971C129.494 825.456 129.146 825.871 128.668 825.955L92.6328 832.314C91.6587 832.486 91.053 831.291 91.7678 830.607L115.94 807.486C116.278 807.163 116.342 806.642 116.103 806.242Z" fill="#F9E0D9"/>
<path d="M32.7807 661.719L85.6961 426.54C85.7856 426.142 86.1073 425.839 86.5093 425.772L178.249 410.676C178.713 410.6 179.167 410.856 179.341 411.292L278.966 660.941C279.164 661.437 278.937 662.001 278.451 662.222L149.859 720.673C149.658 720.764 149.433 720.787 149.219 720.737L33.5301 693.86C33.077 693.755 32.7563 693.351 32.7563 692.886V661.939C32.7563 661.865 32.7645 661.791 32.7807 661.719Z" fill="#E7596A"/>
<path d="M135.393 696.039C78.7663 704.394 43.3688 680.715 32.1193 667.213C31.798 666.827 31.2471 666.744 30.8187 667.005C7.83024 681.033 0.903809 696.154 0.903809 706.657C0.903809 717.275 71.6875 759.745 160.167 751.487C248.647 743.229 305.274 673.625 307.633 658.288C309.975 643.066 292.558 641.79 272.688 641.772C272.404 641.772 272.151 641.874 271.957 642.081C260.688 654.116 206.737 685.513 135.393 696.039Z" fill="#CAEC68"/>
<path d="M54.9575 424.769L92.7112 381.295C92.8484 381.137 93.0318 381.026 93.2354 380.978L162.082 364.641C162.364 364.574 162.661 364.633 162.897 364.802L199.2 390.895C199.74 391.283 199.758 392.079 199.247 392.504C177.6 410.504 169.021 446.511 131.853 453.015C94.8444 459.492 78.2437 435.13 55.3754 426.388C54.7154 426.136 54.4942 425.302 54.9575 424.769Z" fill="#B1D153"/>
<path d="M144.896 341.1L95.7081 356.206C95.4964 356.271 95.3122 356.405 95.1846 356.586L73.4557 387.385C73.1327 387.843 73.2676 388.489 73.7345 388.799C128.719 425.295 164.752 390.395 176.337 367.636C176.546 367.224 176.433 366.736 176.077 366.44L145.829 341.287C145.57 341.071 145.219 341.001 144.896 341.1Z" fill="#CAEC68"/>
<path d="M157.407 277.337C165.32 315.621 148.292 351.501 119.372 357.479C90.4533 363.456 65.4436 335.575 57.5307 297.291C49.6178 259.008 61.798 224.819 90.7172 218.842C119.636 212.864 149.495 239.054 157.407 277.337Z" fill="#F9E0D9"/>
<path d="M54.1923 83.1921L72.684 75.5779C72.8048 75.5282 72.9341 75.5026 73.0647 75.5026H76.275C76.362 75.5026 76.4486 75.5139 76.5327 75.5363L92.8443 79.8861C93.4792 80.0554 94.102 79.5769 94.102 78.9199V61.8328C94.102 61.0779 93.2975 60.5952 92.6314 60.9504L78.2915 68.5984C77.5431 68.9975 76.6689 68.3424 76.8419 67.5121L82.0539 42.4944C82.1833 41.8734 81.7092 41.2905 81.0749 41.2905H63.6537C62.9663 41.2905 62.4839 41.968 62.7087 42.6176L71.9788 69.3978C72.283 70.2765 71.3282 71.0583 70.5268 70.5869L54.3185 61.0526C53.6519 60.6605 52.8115 61.1411 52.8115 61.9145V82.2674C52.8115 82.9792 53.5341 83.4631 54.1923 83.1921Z" fill="#CAEC68"/>
<path d="M321.789 16.0489V46.7865C321.789 47.7218 322.959 48.1452 323.558 47.4267L362.072 1.21C362.541 0.647018 363.436 0.763216 363.746 1.4273L379.137 34.4075C379.384 34.9375 379.126 35.5656 378.577 35.7684L327.298 54.7193C326.509 55.0112 326.411 56.0885 327.135 56.5176L355.749 73.4741C356.398 73.8587 356.404 74.7962 355.759 75.1885L331.187 90.1458C330.617 90.4924 329.874 90.1953 329.701 89.5516L321.859 60.4242C321.813 60.2551 321.724 60.1009 321.6 59.9771L313.531 51.908L296.585 32.7022C296.187 32.2511 296.275 31.5533 296.772 31.2144L320.226 15.2226C320.89 14.77 321.789 15.2455 321.789 16.0489Z" fill="#CAEC68"/>
<circle cx="75.2263" cy="71.9634" r="7.07837" fill="#323232"/>
<circle cx="320.61" cy="53.0875" r="9.43782" fill="#323232"/>
<path d="M125.954 470.711C125.954 480.318 126.081 492.15 126.383 505.327M126.383 505.327C126.764 521.94 127.423 540.692 128.456 559.82M126.383 505.327L114.157 507.283M126.383 505.327L143.65 502.564M128.456 559.82C129.68 582.479 131.429 605.666 133.864 626.451M128.456 559.82C122.248 559.382 117.06 557.993 114.157 556.832M128.456 559.82C134.864 560.271 142.358 559.708 149.549 556.832M133.864 626.451C134.576 632.529 135.347 638.403 136.181 643.997M133.864 626.451C126.482 627.602 118.975 627.801 114.157 627.615M133.864 626.451C142.148 625.159 150.275 622.669 154.268 618.177M136.181 643.997C138.26 657.954 140.729 670.175 143.65 679.523M136.181 643.997C130.338 648.471 124.735 653.609 121.235 657.108M136.181 643.997C142.813 638.918 149.752 634.694 154.268 634.694M89.3829 271.337C86.6302 277.629 84.8999 296.347 100 320.886" stroke="#A8465E"/>
<g style="mix-blend-mode:multiply">
<path d="M373.269 21.8345L324.973 50.2443C324.499 50.5229 324.3 51.1057 324.504 51.6159L333.161 73.2574C333.394 73.8405 333.098 74.501 332.508 74.7156L326.313 76.9683L329.23 87.8016C329.639 89.3205 331.391 90.0215 332.735 89.2036L353.826 76.3657C355.346 75.4401 355.333 73.2281 353.802 72.3205L329.591 57.9732C329.347 57.8289 329.143 57.6537 328.978 57.4571C329.57 56.3242 329.94 55.0561 330.027 53.7111L377.192 36.2806C378.487 35.8023 379.096 34.3201 378.512 33.0697L373.269 21.8345Z" fill="#BAC8E2"/>
<path d="M316.203 61.7662L159.995 291.093C159.795 291.388 159.537 291.625 159.244 291.797C160.164 311.156 154.788 328.917 144.952 341.213C145.473 341.228 145.983 341.415 146.394 341.758L175.253 365.755C176.092 366.453 176.353 367.626 175.841 368.589C175.165 369.861 174.416 371.166 173.593 372.49L197.735 389.842C199.009 390.758 199.052 392.64 197.879 393.681C196.49 394.915 195.154 396.222 193.858 397.59C224.256 443.903 281.669 523.753 317.929 548.858C320.032 550.314 318.931 554.213 316.384 553.975C284.938 551.037 278.251 535.763 279.091 526.565C279.179 525.599 278.809 524.651 277.994 524.125C258.502 511.527 228.061 490.772 203.314 471.367L271.592 642.464C272.054 642.02 272.649 641.772 273.294 641.773C292.911 641.818 309.951 643.221 307.633 658.288C305.95 669.228 276.657 707.776 227.89 731.979C224.371 754.804 219.864 773.979 211.251 801.098C211.029 801.796 211.139 802.568 211.556 803.17L227.531 826.244C228.445 827.565 227.8 829.142 226.608 829.725L204.218 807.335C203.966 807.083 203.848 806.738 203.903 806.386C206.505 789.659 209.122 755.827 200.419 744.664C199.887 743.983 200.148 742.906 200.963 742.623C238.232 729.686 259.236 672.804 221.873 671.296C221.128 671.266 220.541 670.576 220.741 669.857C235.815 615.623 195.291 501.122 180.427 459.123C178.006 452.281 176.265 447.363 175.557 444.943C175.514 444.795 175.45 444.692 175.347 444.575C171.779 440.519 166.56 442.119 161.695 443.609C158.478 444.595 155.416 445.534 153.089 444.758C155.448 443.971 164.178 436.028 180.222 415.265C200.278 389.311 180.222 385.771 160.167 389.311C193.199 356.278 134.213 355.098 127.135 355.098C153.407 340.211 145.224 312.321 137.333 285.424C134.594 276.088 131.89 266.872 130.674 258.361C126.78 231.106 116.461 224.733 110.983 221.349C109.822 220.632 108.878 220.049 108.259 219.43C116.62 220.19 126.615 226.828 134.77 233.662C141.171 239.026 150.805 239.01 156.469 232.873L314.494 61.6797C314.988 61.1445 315.809 61.2375 316.203 61.7662Z" fill="#BAC8E2"/>
</g>
</svg>
