<svg width="421" height="762" viewBox="0 0 421 762" fill="none" xmlns="http://www.w3.org/2000/svg">
<path d="M120.92 725.223C95.3614 668.056 86.059 633.562 95.1338 562.558C95.1954 562.076 95.5968 561.696 96.0822 561.675L324.407 551.552C324.962 551.527 325.431 551.97 325.451 552.524C327.893 618.557 325.002 656.529 305.181 725.504C305.074 725.875 305.188 726.282 305.477 726.538L341.826 758.733C342.596 759.415 341.957 760.677 340.951 760.459L277.446 746.699C276.986 746.6 276.658 746.193 276.658 745.722V713.916C276.658 713.74 276.609 713.564 276.521 713.411C249.627 667.019 233.892 642.464 206.015 600.322C205.633 599.745 204.781 599.721 204.366 600.273C173.101 641.971 158.665 666.877 140.664 713.471C140.62 713.586 140.596 713.71 140.596 713.833V745.676C140.596 746.167 140.24 746.586 139.755 746.664L55.4711 760.191C54.334 760.373 53.8402 758.805 54.8767 758.303L120.447 726.543C120.934 726.307 121.141 725.717 120.92 725.223Z" fill="#4E4E4E"/>
<path d="M334.336 124.466L288.119 255.227C288.04 255.451 288.043 255.695 288.128 255.917L394.214 533.547C394.414 534.07 394.146 534.655 393.619 534.845L184.044 610.337C183.811 610.421 183.556 610.416 183.328 610.322L31.5431 548.484C31.0304 548.275 30.785 547.69 30.9957 547.178L143.791 273.085C143.92 272.771 143.881 272.413 143.688 272.134L69.4305 165.249C69.2619 165.006 69.2048 164.717 69.283 164.432C78.892 129.435 112.495 50.1787 171.211 9.52911C230.035 -31.1958 304.285 68.4087 334.278 123.667C334.413 123.916 334.431 124.2 334.336 124.466Z" fill="#93DA71"/>
<ellipse cx="156.471" cy="180.281" rx="70.2984" ry="62.3615" fill="#4E4E4E"/>
<path fill-rule="evenodd" clip-rule="evenodd" d="M108.172 22.0302C107.511 21.5468 106.581 22.0186 106.581 22.8372L106.581 74.9972C106.581 75.6911 105.892 76.1741 105.239 75.937L58.0338 58.7713C57.3817 58.5341 56.6921 59.0171 56.6921 59.711V124.277C56.6921 124.79 56.3039 125.22 55.7936 125.272L3.37001 130.621C2.50831 130.709 2.1583 131.776 2.8006 132.358L48.0881 173.332C48.4674 173.675 48.5265 174.249 48.2252 174.663L18.4524 215.506C17.9244 216.23 18.5425 217.23 19.4264 217.081L72.09 208.222C72.8265 208.098 73.434 208.796 73.2098 209.508L61.9121 245.409C61.7302 245.987 62.1003 246.593 62.6977 246.695L120.49 256.564C120.97 256.646 121.321 257.063 121.321 257.55V296.659C121.321 297.633 122.572 298.032 123.136 297.238L151.149 257.813C151.539 257.264 152.35 257.25 152.759 257.786L183.793 298.451C184.254 299.055 185.193 298.944 185.502 298.25L200.709 263.999C200.893 263.584 201.333 263.345 201.781 263.417L255.803 272.046C256.532 272.162 257.132 271.474 256.917 270.767L240.891 218.073C240.782 217.714 240.883 217.324 241.153 217.063L280.174 179.337C280.634 178.892 280.564 178.137 280.03 177.784L250.175 158.045C249.714 157.74 249.588 157.119 249.894 156.658L280.286 110.866C280.668 110.29 280.365 109.51 279.695 109.343L225.765 95.8893C225.319 95.7782 225.007 95.3781 225.007 94.9191V46.5672C225.007 45.8327 224.241 45.3489 223.578 45.6638L173.709 69.3334C173.377 69.4908 172.986 69.4538 172.689 69.237L108.172 22.0302ZM110.618 152.183C110.305 152.599 110.363 153.185 110.751 153.531L99.2265 143.319C98.4811 142.658 97.3335 143.375 97.5997 144.335L103.338 165.03C103.365 165.127 103.378 165.228 103.374 165.329L102.252 200.375C102.216 201.516 103.814 201.817 104.195 200.74L109.301 186.296C109.591 185.474 110.721 185.391 111.128 186.162L130.184 222.297C130.316 222.548 130.55 222.731 130.826 222.8L144.154 226.136C144.221 226.153 144.289 226.163 144.357 226.165L170.933 227.227C171.213 227.238 171.485 227.131 171.682 226.933L187.001 211.528C187.189 211.339 187.444 211.233 187.71 211.233H209.396C210.316 211.233 210.748 210.095 210.06 209.485L188.471 190.322C187.923 189.835 188.067 188.944 188.74 188.655L216.221 176.839C216.902 176.547 217.039 175.641 216.475 175.16L197.755 159.181C197.469 158.937 197.071 158.874 196.723 159.018L162.961 172.967C162.303 173.239 161.58 172.755 161.58 172.043L161.58 134.21C161.58 133.423 160.712 132.944 160.046 133.364L136.788 148.025C136.122 148.445 135.255 147.967 135.255 147.179V122.499C135.255 121.539 134.034 121.131 133.456 121.897L110.618 152.183Z" fill="#EAEAEA"/>
<path d="M167.809 292.99C162.157 385.048 122.142 509.136 124.854 551.507" stroke="#68B95B"/>
<path d="M6.65727 559.752L0.137764 522.808C0.0570618 522.351 0.301799 521.898 0.728629 521.715L23.3432 512.023C23.637 511.897 23.8529 511.638 23.9241 511.327L32.3456 474.483C32.5438 473.616 33.6908 473.42 34.1659 474.172L46.038 492.969C46.2978 493.381 46.8161 493.545 47.2658 493.359L77.4303 480.877C78.208 480.556 79.0111 481.28 78.7712 482.086L67.4605 520.132C67.2268 520.917 67.9863 521.635 68.7577 521.357L94.269 512.173C94.8014 511.982 95.3866 512.27 95.5598 512.808L105.047 542.325C105.249 542.952 105.992 543.217 106.544 542.857L126.906 529.622C127.494 529.24 128.282 529.566 128.429 530.251L134.307 557.681C134.507 558.617 135.782 558.763 136.189 557.897L151.897 524.517C152.295 523.672 153.532 523.785 153.769 524.688L164.027 563.666C164.208 564.355 165.032 564.639 165.599 564.208L192.16 544.021C192.512 543.754 192.998 543.749 193.355 544.01L221.245 564.391C221.756 564.764 222.48 564.575 222.744 564L234.4 538.568C234.582 538.171 235 537.938 235.434 537.992L279.669 543.522C279.92 543.553 280.174 543.488 280.379 543.34L300.207 529.02C300.377 528.897 300.582 528.83 300.792 528.83H327.815C328.367 528.83 328.815 528.383 328.815 527.83V501.94C328.815 501.238 329.519 500.755 330.174 501.007L356.936 511.3C357.591 511.552 358.295 511.068 358.295 510.367V488.396C358.295 488.149 358.387 487.91 358.552 487.727L387.166 455.934C387.779 455.252 388.909 455.686 388.909 456.603V492.873C388.909 493.344 389.238 493.752 389.699 493.851L419.534 500.244C420.127 500.371 420.472 500.993 420.264 501.563L407.22 537.436C407.113 537.729 406.876 537.956 406.578 538.049L389.996 543.231C389.42 543.411 389.133 544.056 389.386 544.604L401.534 570.924C401.903 571.724 401.133 572.575 400.301 572.289L367.557 561.034C366.908 560.81 366.232 561.293 366.232 561.979V580.679C366.232 580.88 366.171 581.076 366.058 581.242L350.012 604.777C349.626 605.343 348.797 605.362 348.386 604.814L336.401 588.834C336.006 588.308 335.219 588.3 334.814 588.818L315.706 613.234C315.416 613.604 314.907 613.722 314.483 613.517L280.948 597.291C280.456 597.053 279.863 597.255 279.618 597.744L264.687 627.607C264.42 628.141 263.748 628.324 263.247 627.999L242.204 614.32C241.801 614.058 241.268 614.12 240.936 614.468L216.86 639.638C216.671 639.836 216.41 639.947 216.137 639.947H192.946C192.819 639.947 192.693 639.971 192.575 640.019L165.262 650.944C164.779 651.137 164.229 650.928 163.996 650.463L153.346 629.162C153.176 628.823 152.83 628.609 152.451 628.609H120.826C120.437 628.609 120.083 628.383 119.919 628.03L105.716 597.44C105.552 597.087 105.199 596.861 104.809 596.861H47.4877C46.9354 596.861 46.4877 596.413 46.4877 595.861V561.578C46.4877 561.026 46.0399 560.578 45.4877 560.578H7.64205C7.15681 560.578 6.7416 560.23 6.65727 559.752Z" fill="#EAEAEA"/>
<path d="M256.249 565.113C260.777 574.169 274.071 585.126 282.286 557.319C282.313 557.228 282.328 557.128 282.328 557.033V485.61C282.328 485.058 281.88 484.61 281.328 484.61H243.359C242.931 484.61 242.556 484.865 242.421 485.271C240.451 491.196 226.174 535.192 233.572 544.704C239.278 552.04 244.984 544.727 247.741 540.036C248.257 539.156 249.794 539.405 249.944 540.414C250.839 546.447 252.94 558.496 256.249 565.113Z" fill="#4E4E4E"/>
<path d="M282.327 464.201V280.594C282.327 279.966 281.764 279.492 281.151 279.627C256.928 284.993 225.581 313.763 222.233 336.077C218.984 357.741 240.572 473.583 242.505 483.879C242.594 484.351 242.991 484.61 243.471 484.61H281.327C281.88 484.61 282.327 484.163 282.327 483.61V464.201Z" fill="#93DA71"/>
<path d="M257.018 469.087L250.352 454.804C249.993 454.035 248.89 454.037 248.502 454.793C240.93 469.566 230.91 472.697 222.059 473.224C221.524 473.256 221.1 473.696 221.1 474.233V497.216C221.1 497.769 221.548 498.216 222.1 498.216H248.809C249.198 498.216 249.551 498.442 249.716 498.794L256.74 513.846C257.044 514.498 257.916 514.625 258.394 514.087L275.226 495.151C275.416 494.937 275.688 494.815 275.974 494.815H291.763C292.216 494.815 292.613 494.509 292.729 494.071L302.28 457.991C302.48 457.236 301.774 456.553 301.026 456.778L258.211 469.622C257.736 469.765 257.228 469.537 257.018 469.087Z" fill="#EAEAEA"/>
<circle cx="183.682" cy="347.415" r="6.80307" fill="#68B95B"/>
<circle cx="176.88" cy="404.107" r="6.80307" fill="#68B95B"/>
<circle cx="163.273" cy="467.603" r="6.80307" fill="#68B95B"/>
<path d="M132.66 168.267C132.66 182.781 137.951 193.212 140.597 196.614" stroke="#EAEAEA"/>
<g style="mix-blend-mode:multiply">
<path fill-rule="evenodd" clip-rule="evenodd" d="M299.97 144.698L272.347 250.012C271.261 254.153 270.711 258.416 270.711 262.697V283.461V464.175C270.711 468.337 271.891 472.413 274.113 475.932L274.623 476.74C280.185 485.546 278.421 497.101 270.485 503.846C264.984 508.522 262.283 515.705 263.341 522.848L266.889 546.795C269.085 561.616 281.807 572.592 296.789 572.592V587.332H306.994V607.741L312.524 631.443C314.111 638.243 314.256 645.3 312.949 652.16L296.789 736.999L336.811 754.537L305.798 727.069C305.143 726.489 304.885 725.568 305.126 724.727C319.551 674.376 324.917 640.539 325.78 600.006L333.516 590.121C334.436 588.946 336.221 588.964 337.116 590.158L347.044 603.396C347.977 604.639 349.856 604.597 350.732 603.313L365.56 581.565C365.817 581.189 365.954 580.743 365.954 580.288V563.755C365.954 562.199 367.487 561.105 368.959 561.611L397.216 571.324C399.104 571.973 400.849 570.042 400.012 568.229L389.713 545.915C389.139 544.672 389.789 543.208 391.096 542.8L405.701 538.236C406.376 538.025 406.914 537.511 407.156 536.846L419.489 502.931C419.959 501.638 419.178 500.227 417.833 499.939L390.423 494.065C389.378 493.841 388.631 492.917 388.631 491.848V459.906C388.631 457.828 386.068 456.844 384.678 458.389L371.017 473.567L288.016 256.352C287.824 255.85 287.817 255.295 287.997 254.787L333.871 124.997C334.084 124.392 334.044 123.746 333.737 123.184C309.707 79.0831 257.858 7.33806 208.11 0.523682C209.716 10.077 214.092 19.1502 220.997 26.4916L253.136 60.6607L288.027 97.755C299.828 110.301 304.34 128.037 299.97 144.698ZM223.918 46.5881C217.015 61.7225 202.957 94.0238 203.814 104.314C204.948 117.92 235.562 126.991 235.562 126.991L223.09 137.195C223.09 137.195 235.562 130.392 235.562 139.463C235.562 148.534 231.026 173.478 231.026 173.478L244.633 181.415C244.633 181.415 233.294 188.218 227.625 196.155C221.956 204.092 231.026 242.643 231.026 242.643L201.824 264.186L263.052 273.257L252.57 222.234L283.183 178.014L257.383 154.203L286.863 107.715L227.625 96.3768V47.4234C227.625 45.2944 224.802 44.6511 223.918 46.5881Z" fill="#B4D8CD"/>
</g>
</svg>
